<?xml version="1.0" encoding="utf-8"?><svg xmlns="http://www.w3.org/2000/svg" xmlns:xlink="http://www.w3.org/1999/xlink"><symbol class="asvg-inline--fa afa-angle-left afa-w-8" viewBox="0 0 256 512" id="arrow-left" xmlns="http://www.w3.org/2000/svg"><path d="M31.7 239l136-136c9.4-9.4 24.6-9.4 33.9 0l22.6 22.6c9.4 9.4 9.4 24.6 0 33.9L127.9 256l96.4 96.4c9.4 9.4 9.4 24.6 0 33.9L201.7 409c-9.4 9.4-24.6 9.4-33.9 0l-136-136c-9.5-9.4-9.5-24.6-.1-34z"/></symbol><symbol class="bsvg-inline--fa bfa-angle-right bfa-w-8" viewBox="0 0 256 512" id="arrow-right" xmlns="http://www.w3.org/2000/svg"><path d="M224.3 273l-136 136c-9.4 9.4-24.6 9.4-33.9 0l-22.6-22.6c-9.4-9.4-9.4-24.6 0-33.9l96.4-96.4-96.4-96.4c-9.4-9.4-9.4-24.6 0-33.9L54.3 103c9.4-9.4 24.6-9.4 33.9 0l136 136c9.5 9.4 9.5 24.6.1 34z"/></symbol><symbol class="csvg-inline--fa cfa-clock cfa-w-16" viewBox="0 0 512 512" id="clock" xmlns="http://www.w3.org/2000/svg"><path d="M256 8C119 8 8 119 8 256s111 248 248 248 248-111 248-248S393 8 256 8zm0 448c-110.5 0-200-89.5-200-200S145.5 56 256 56s200 89.5 200 200-89.5 200-200 200zm61.8-104.4l-84.9-61.7c-3.1-2.3-4.9-5.9-4.9-9.7V116c0-6.6 5.4-12 12-12h32c6.6 0 12 5.4 12 12v141.7l66.8 48.6c5.4 3.9 6.5 11.4 2.6 16.8L334.6 349c-3.9 5.3-11.4 6.5-16.8 2.6z"/></symbol><symbol class="dsvg-inline--fa dfa-envelope dfa-w-16" viewBox="0 0 512 512" id="envelope" xmlns="http://www.w3.org/2000/svg"><path d="M464 64H48C21.49 64 0 85.49 0 112v288c0 26.51 21.49 48 48 48h416c26.51 0 48-21.49 48-48V112c0-26.51-21.49-48-48-48zm0 48v40.805c-22.422 18.259-58.168 46.651-134.587 106.49-16.841 13.247-50.201 45.072-73.413 44.701-23.208.375-56.579-31.459-73.413-44.701C106.18 199.465 70.425 171.067 48 152.805V112h416zM48 400V214.398c22.914 18.251 55.409 43.862 104.938 82.646 21.857 17.205 60.134 55.186 103.062 54.955 42.717.231 80.509-37.199 103.053-54.947 49.528-38.783 82.032-64.401 104.947-82.653V400H48z"/></symbol><symbol viewBox="0 0 24 24" id="facebook" xmlns="http://www.w3.org/2000/svg"><path d="M17.525 9H14V7c0-1.032.084-1.682 1.563-1.682h1.868v-3.18A26.065 26.065 0 0 0 14.693 2C11.98 2 10 3.657 10 6.699V9H7v4l3-.001V22h4v-9.003l3.066-.001L17.525 9z"/></symbol><symbol viewBox="0 0 36 36" id="family" xmlns="http://www.w3.org/2000/svg"><path d="M21 14c.253 3.89 3.521 6.969 7.5 6.969S35.747 17.89 36 14V4H21v10z"/><path d="M36 21.752V14c-.253 3.89-3.521 6.969-7.5 6.969S21.253 17.89 21 14V9.663c5.328-.155 8.51-2.343 10.237-4.181C31.652 6.957 32.801 9 36 9V1.9c-.931-.689-2.115-1.093-3.462-1.093-.333 0-.657.034-.974.09C30.393.328 29.39 0 28 0c-4.907 0-9 4.093-9 9v7c.064 2.258.868 4.35 2.182 6L24 24h9l2.818-2c.064-.08.121-.166.182-.248z"/><path d="M35.818 22H21c-2 0-3 1-3 2.973V36h18V22h-.182z"/><path d="M20.986 26h1.028v10h-1.028zM26 19v3a2.5 2.5 0 1 0 5 0v-3h-5z"/><path d="M25.27 17.769h6.46s-.808 1.616-3.23 1.616-3.23-1.616-3.23-1.616zM29 15.5h-1a.5.5 0 0 1 0-1h1a.5.5 0 0 1 0 1zM25 13a1 1 0 0 1-1-1v-1a1 1 0 1 1 2 0v1a1 1 0 0 1-1 1zm7 0a1 1 0 0 1-1-1v-1a1 1 0 1 1 2 0v1a1 1 0 0 1-1 1zM5 22v-4h5v4h2v6H3v-6z"/><path d="M15 22h-5l-2.472 3.778L5 22H0v14h18V24.973C18 23 17 22 15 22z"/><path d="M13.986 26h1.028v10h-1.028zM15 14V5L0 4v10h.024c.252 3.89 3.498 6.969 7.476 6.969 3.791 0 6.932-2.799 7.438-6.428.025-.18.05-.358.062-.541z"/><path d="M3.806.806A7.095 7.095 0 0 0 0 1.912v8.083c5.947-.055 9.375-2.593 11.162-4.598.506 1.589 1.633 4.021 3.838 4.51V14c-.012.183-.037.361-.062.54A8.86 8.86 0 0 0 8.139 0 8.812 8.812 0 0 0 4.4.836a6.866 6.866 0 0 0-.594-.03zM15 5v.166l-.028-.167L15 5zM10.722 17.723H4.278s.805 1.61 3.222 1.61 3.222-1.61 3.222-1.61zM8 15.5H7a.5.5 0 0 1 0-1h1a.5.5 0 0 1 0 1z"/><path d="M4 13a1 1 0 0 1-1-1v-1a1 1 0 0 1 2 0v1a1 1 0 0 1-1 1zm7 0a1 1 0 0 1-1-1v-1a1 1 0 0 1 2 0v1a1 1 0 0 1-1 1zM19.432 32.852c-.264.511-.432.921-.432 1.148 4.656 0 9-3 9-3-1.125-3.688-1.666-8.139-1.666-8.139A7.86 7.86 0 0 0 18.473 15a7.817 7.817 0 0 0-3.464.812 6.136 6.136 0 0 0-5.545 8.47C9.214 25.893 8.731 28.604 8 31c0 0 4.344 3 9 3 0-.227-.167-.636-.431-1.146C13.39 32.198 11 29.4 11 26.047l.002-.047H11v-6h3.551c1.018-.574 2.192-.906 3.446-.906s2.429.332 3.446.906H25v6h-.008l.002.047c0 3.351-2.386 6.147-5.562 6.805z"/><path d="M20 35v-4h-4v4h-1v1h6v-1z"/><path d="M14 33c-2.493 0-4.276 1.385-4.814 3H18l-2-3h-2zm9 0h-3l-2 3h8.818c-.518-1.602-2.159-3-3.818-3zM24.994 26.047L24.992 26H25v-6h-3.557c-1.018-.574-2.192-.906-3.446-.906s-2.428.332-3.446.906H11v6h.002l-.002.047c0 3.353 2.39 6.152 5.569 6.807a7.065 7.065 0 0 0 2.863-.002c3.176-.658 5.562-3.454 5.562-6.805z"/><path d="M26 23l-1-4-3-2-11 1-.861 5c5.41 0 8.425-1.755 10.065-3.367C21.44 21.092 23.528 23 26 23zM21 30h-6s.583 2 3 2 3-2 3-2zm-3-.5a.47.47 0 0 1-.35-.15c-.1-.09-.15-.22-.15-.35s.05-.26.15-.36c.17-.17.52-.18.71.01.09.09.14.22.14.35s-.05.26-.15.35a.47.47 0 0 1-.35.15zM15 28a1 1 0 0 1-1-1v-1a1 1 0 1 1 2 0v1a1 1 0 0 1-1 1zm6 0a1 1 0 0 1-1-1v-1a1 1 0 1 1 2 0v1a1 1 0 0 1-1 1z"/></symbol><symbol viewBox="0 0 48 48" id="fb" xmlns="http://www.w3.org/2000/svg"><path d="M42 37a5 5 0 0 1-5 5H11a5 5 0 0 1-5-5V11a5 5 0 0 1 5-5h26a5 5 0 0 1 5 5z"/><path d="M34.367 25H31v13h-5V25h-3v-4h3v-2.41c.004-3.508 1.46-5.59 5.594-5.59H35v4h-2.285c-1.61 0-1.715.602-1.715 1.723V21h4z"/></symbol><symbol viewBox="0 0 36 36" id="hands" xmlns="http://www.w3.org/2000/svg"><path d="M30 22c-3 0-6.688 7.094-7 10-.421 3.915 2 4 2 4h11V26s-3.438-4-6-4z"/><ellipse transform="rotate(-60 27.574 28.49)" cx="27.574" cy="28.489" rx="5.848" ry="1.638"/><path d="M20.086 0c1.181 0 2.138.957 2.138 2.138 0 .789.668 10.824.668 10.824L17.948 18V2.138C17.948.957 18.905 0 20.086 0z"/><path d="M18.875 4.323c0-1.099.852-1.989 1.903-1.989 1.051 0 1.903.891 1.903 1.989 0 0 .535 5.942 1.192 9.37.878 1.866 1.369 4.682 1.261 6.248.054.398 5.625 5.006 5.625 5.006-.281 1.813-2.259 6.155-4.759 8.159l-3.521-2.924c-2.885-.404-4.458-3.331-4.458-4.264 0-2.984.854-21.595.854-21.595zM6 22c3 0 6.688 7.094 7 10 .421 3.915-2 4-2 4H0V26s3.438-4 6-4z"/><ellipse transform="rotate(-30 8.424 28.489)" cx="8.426" cy="28.489" rx="1.638" ry="5.848"/><path d="M16.061.011a2.115 2.115 0 0 0-2.333 2.103c0 .78-.184 10.319-.184 10.319L17.895 18l.062-15.765c0-1.106-.795-2.114-1.896-2.224z"/><path d="M17.125 4.323c0-1.099-.852-1.989-1.903-1.989-1.051 0-1.903.891-1.903 1.989 0 0-.535 5.942-1.192 9.37-.878 1.866-1.369 4.682-1.261 6.248-.054.398-5.625 5.006-5.625 5.006C5.522 26.76 7.5 31.102 10 33.106l3.521-2.924c2.885-.404 4.458-3.331 4.458-4.264 0-2.984-.854-21.595-.854-21.595z"/><path d="M17.958 25.823a.75.75 0 0 1-.75-.75V2.792a.75.75 0 0 1 1.5 0v22.282a.749.749 0 0 1-.75.749z"/></symbol><symbol viewBox="0 0 44 44" id="loupe" xmlns="http://www.w3.org/2000/svg"><path d="M32.5 30c2.494-3.129 4-7.654 4-12 0-10.05-8.139-18-18-18C8.638 0 .5 7.95.5 18s8.138 18 18 18c4.193 0 7.953-1.534 11-4l11 12 3-3-11-11zm-14 2c-7.658 0-14-6.196-14-14s6.342-14 14-14 14 6.196 14 14-6.342 14-14 14z"/></symbol><symbol viewBox="0 0 48 48" id="odnoklassniki" xmlns="http://www.w3.org/2000/svg"><path d="M42 37c0 2.8-2.2 5-5 5H11c-2.8 0-5-2.2-5-5V11c0-2.8 2.2-5 5-5h26c2.8 0 5 2.2 5 5z"/><path d="M26.898 30.398c1.5-.296 2.903-.898 4.102-1.699 1-.597 1.3-1.898.7-2.898-.598-1-1.9-1.301-2.9-.7-2.902 1.797-6.698 1.797-9.6 0-1-.601-2.302-.3-2.9.7-.6 1-.3 2.3.7 2.898 1.3.801 2.7 1.403 4.102 1.7l-4 4c-.801.8-.801 2.101 0 3 .398.402.898.601 1.5.601.5 0 1.097-.2 1.5-.602L24 33.5l3.898 3.898c.801.801 2.102.801 3 0 .801-.796.801-2.097 0-3l-4-4zM24 10c-3.898 0-7 3.102-7 7s3.102 7 7 7 7-3.102 7-7-3.102-7-7-7zm0 10c-1.7 0-3-1.3-3-3s1.3-3 3-3 3 1.3 3 3-1.3 3-3 3z"/></symbol><symbol viewBox="0 0 36 36" id="phone" xmlns="http://www.w3.org/2000/svg"><path d="M36 11.5C36 8.462 33 4 18 4S0 8.462 0 11.5c0 .045.019.076.022.119-.012.196-.022.402-.022.631C0 14.873 2.239 16 5 16s5-1.127 5-3.75a3.66 3.66 0 0 0-.051-.597C12.374 11.302 15.102 11 18 11s5.626.302 8.051.653a3.66 3.66 0 0 0-.051.597c0 2.623 2.238 3.75 5 3.75s5-1.127 5-3.75c0-.225-.009-.429-.024-.621.004-.046.024-.08.024-.129z"/><path d="M34.934 23c-.482-1.031-2.31-4.19-3.968-7.007C29.408 13.346 27 11 25 11V9a2 2 0 0 0-4 0v2h-6V9a2 2 0 0 0-4 0v2c-2 0-4.41 2.351-5.97 5-1.657 2.815-3.483 5.97-3.964 7C.488 24.239 0 25 0 27s1.791 5 4 5h28c2.209 0 4-3 4-5s-.448-2.676-1.066-4z"/><path d="M20.046 14.818c0 .452-.916.818-2.046.818s-2.045-.366-2.045-.818c0-.452.915-.818 2.045-.818s2.046.366 2.046.818zm-4.91 0c0 .452-.915.818-2.045.818s-2.045-.366-2.045-.818c0-.452.916-.818 2.045-.818s2.045.366 2.045.818zm9.818 0c0 .452-.915.818-2.045.818s-2.046-.366-2.046-.818c0-.452.916-.818 2.046-.818s2.045.366 2.045.818zm-4.5 2.864c0 .679-1.099 1.228-2.454 1.228s-2.455-.549-2.455-1.228c0-.677 1.099-1.227 2.455-1.227s2.454.549 2.454 1.227zm5.728 0c0 .679-1.1 1.228-2.454 1.228-1.355 0-2.455-.549-2.455-1.228 0-.677 1.1-1.227 2.455-1.227 1.354 0 2.454.549 2.454 1.227zm-11.455 0c0 .679-1.099 1.228-2.454 1.228-1.355 0-2.455-.549-2.455-1.228 0-.677 1.099-1.227 2.455-1.227 1.355 0 2.454.549 2.454 1.227zm6.545 3.681C21.272 22.269 19.807 23 18 23c-1.807 0-3.273-.731-3.273-1.637 0-.903 1.466-1.636 3.273-1.636 1.807.001 3.272.733 3.272 1.636zm7.365 0c0 .905-1.467 1.637-3.273 1.637-1.807 0-3.273-.731-3.273-1.637 0-.903 1.466-1.636 3.273-1.636 1.806.001 3.273.733 3.273 1.636zm-14.728 0c0 .905-1.466 1.637-3.273 1.637-1.807 0-3.272-.731-3.272-1.637 0-.903 1.465-1.636 3.272-1.636 1.807.001 3.273.733 3.273 1.636z"/></symbol><symbol viewBox="0 0 36 36" id="star" xmlns="http://www.w3.org/2000/svg"><path d="M27.287 34.627c-.404 0-.806-.124-1.152-.371L18 28.422l-8.135 5.834a1.97 1.97 0 0 1-2.312-.008 1.971 1.971 0 0 1-.721-2.194l3.034-9.792-8.062-5.681a1.98 1.98 0 0 1-.708-2.203 1.978 1.978 0 0 1 1.866-1.363L12.947 13l3.179-9.549a1.976 1.976 0 0 1 3.749 0L23 13l10.036.015a1.975 1.975 0 0 1 1.159 3.566l-8.062 5.681 3.034 9.792a1.97 1.97 0 0 1-.72 2.194 1.957 1.957 0 0 1-1.16.379z"/></symbol><symbol viewBox="0 0 578.106 578.106" id="tel" xmlns="http://www.w3.org/2000/svg"><path d="M577.83 456.128c1.225 9.385-1.635 17.545-8.568 24.48l-81.396 80.781c-3.672 4.08-8.465 7.551-14.381 10.404-5.916 2.857-11.729 4.693-17.439 5.508-.408 0-1.635.105-3.676.309-2.037.203-4.689.307-7.953.307-7.754 0-20.301-1.326-37.641-3.979s-38.555-9.182-63.645-19.584c-25.096-10.404-53.553-26.012-85.376-46.818-31.823-20.805-65.688-49.367-101.592-85.68-28.56-28.152-52.224-55.08-70.992-80.783-18.768-25.705-33.864-49.471-45.288-71.299-11.425-21.828-19.993-41.616-25.705-59.364S4.59 177.362 2.55 164.51-.306 141.56.102 134.216c.408-7.344.612-11.424.612-12.24.816-5.712 2.652-11.526 5.508-17.442s6.324-10.71 10.404-14.382L98.022 8.756c5.712-5.712 12.24-8.568 19.584-8.568 5.304 0 9.996 1.53 14.076 4.59s7.548 6.834 10.404 11.322l65.484 124.236c3.672 6.528 4.692 13.668 3.06 21.42-1.632 7.752-5.1 14.28-10.404 19.584l-29.988 29.988c-.816.816-1.53 2.142-2.142 3.978s-.918 3.366-.918 4.59c1.632 8.568 5.304 18.36 11.016 29.376 4.896 9.792 12.444 21.726 22.644 35.802s24.684 30.293 43.452 48.653c18.36 18.77 34.68 33.354 48.96 43.76 14.277 10.4 26.215 18.053 35.803 22.949 9.588 4.896 16.932 7.854 22.031 8.871l7.648 1.531c.816 0 2.145-.307 3.979-.918 1.836-.613 3.162-1.326 3.979-2.143l34.883-35.496c7.348-6.527 15.912-9.791 25.705-9.791 6.938 0 12.443 1.223 16.523 3.672h.611l118.115 69.768c8.571 5.308 13.67 12.038 15.303 20.198z"/></symbol><symbol viewBox="0 0 36 36" id="two-man" xmlns="http://www.w3.org/2000/svg"><path d="M29 20.729v-1.963c1-1.03 2.914-2.89 3.391-5.273.142.079.055.13.213.13.758 0 1.256-.983 1.256-2.197 0-1.194-.656-2.161-1.399-2.191.143-.516.212-1.206.212-2.092 0-2.956-2.549-6.505-8.253-6.505-5.068 0-8.244 3.549-8.244 6.505 0 .858.051 1.562.142 2.107-.697.105-1.247 1.033-1.247 2.175 0 1.214.614 2.197 1.373 2.197.157 0-.069-.051.072-.13.477 2.384 2.484 4.243 3.484 5.274v1.847c-4 .492-7 2.628-7 4.765v.81c0 .812.823.812 1.634.812h18.73c.813 0 1.636 0 1.636-.812v-.81c0-2.001-3-3.997-6-4.649z"/><path d="M17 28.729v-1.963c1-1.03 2.914-2.89 3.391-5.273.142.079.055.13.213.13.758 0 1.256-.983 1.256-2.197 0-1.194-.656-2.161-1.399-2.191.143-.516.212-1.206.212-2.092 0-2.956-2.549-6.505-8.253-6.505-5.069 0-8.244 3.549-8.244 6.505 0 .858.051 1.562.142 2.107-.697.105-1.247 1.033-1.247 2.175 0 1.214.614 2.197 1.373 2.197.157 0-.069-.051.072-.13C4.993 23.876 7 25.735 8 26.766v1.847c-4 .492-7 2.628-7 4.765v.811C1 35 1.823 35 2.634 35h18.73c.813 0 1.636 0 1.636-.812v-.811c0-2-3-3.996-6-4.648z"/></symbol><symbol viewBox="0 0 48 48" id="vk" xmlns="http://www.w3.org/2000/svg"><path d="M42 37a5 5 0 0 1-5 5H11a5 5 0 0 1-5-5V11a5 5 0 0 1 5-5h26a5 5 0 0 1 5 5z"/><path d="M33.184 27.36c2.082 1.949 2.515 2.902 2.586 3.019.859 1.445-.954 1.558-.954 1.558l-3.472.051s-.75.149-1.73-.535c-1.302-.898-3.079-3.242-4.032-2.937-.969.308-.66 2.765-.66 2.765s.008.301-.211.543c-.242.254-.711.156-.711.156h-1s-3.707.016-6.73-3.164c-3.293-3.464-6.047-9.945-6.047-9.945s-.168-.41.011-.629C10.441 17.996 11 18 11 18h3.715s.348.047.598.234c.21.153.324.442.324.442s.449 1.207 1.246 2.597c1.55 2.711 2.273 3.305 2.8 3.012.766-.426.536-3.832.536-3.832s.015-1.238-.387-1.789c-.312-.43-.895-.555-1.152-.59-.211-.023.133-.515.578-.734.668-.328 1.851-.352 3.246-.336A36.078 36.078 0 0 0 24 17c1.281.313.848 1.523.848 4.414 0 .93-.168 2.234.496 2.664.285.192 1.308.219 3.047-2.77.828-1.417 1.48-2.75 1.48-2.75s.14-.3.348-.425c.218-.133.508-.133.508-.133l3.91.02s1.175-.149 1.363.39c.2.563-.48 1.547-2.074 3.7-2.625 3.535-2.918 3.206-.742 5.25z"/></symbol><symbol viewBox="0 0 36 36" id="сlever" xmlns="http://www.w3.org/2000/svg"><path d="M32.551 18.852c-2.093-1.848-6.686-3.264-10.178-3.84 3.492-.577 8.085-1.993 10.178-3.839 2.014-1.776 2.963-2.948 2.141-4.722-.566-1.219-2.854-1.333-4.166-2.491C29.214 2.802 29.083.783 27.7.285c-2.01-.726-3.336.114-5.347 1.889-2.094 1.847-3.698 5.899-4.353 8.98-.653-3.082-2.258-7.134-4.351-8.981C11.634.397 10.308-.441 8.297.285c-1.383.5-1.512 2.518-2.823 3.675S1.872 5.234 1.308 6.454c-.823 1.774.129 2.943 2.14 4.718 2.094 1.847 6.688 3.263 10.181 3.84-3.493.577-8.087 1.993-10.181 3.84-2.013 1.775-2.963 2.945-2.139 4.721.565 1.219 2.854 1.334 4.166 2.49 1.311 1.158 1.444 3.178 2.827 3.676 2.009.727 3.336-.115 5.348-1.889 1.651-1.457 2.997-4.288 3.814-6.933-.262 4.535.528 10.591 3.852 14.262 1.344 1.483 2.407.551 2.822.187.416-.365 1.605-1.414.186-2.822-3.91-3.883-5.266-7.917-5.628-11.14.827 2.498 2.107 5.077 3.657 6.446 2.012 1.775 3.339 2.615 5.351 1.889 1.382-.5 1.512-2.52 2.822-3.676 1.312-1.158 3.602-1.273 4.166-2.494.822-1.774-.13-2.944-2.141-4.717z"/></symbol></svg>